<?xml version="1.0" encoding="utf-8"?>
<!-- Generator: Adobe Illustrator 19.0.0, SVG Export Plug-In . SVG Version: 6.00 Build 0)  -->
<svg version="1.0" id="Layer_1" xmlns="http://www.w3.org/2000/svg" xmlns:xlink="http://www.w3.org/1999/xlink" x="0px" y="0px"
	 viewBox="0 0 400 560" style="enable-background:new 0 0 400 560;" xml:space="preserve">
<style type="text/css">
	.st0{fill:url(#XMLID_6_);}
	.st1{enable-background:new    ;}
	.st2{clip-path:url(#XMLID_7_);enable-background:new    ;}
	.st3{fill:#9E0000;}
	.st4{fill:#A30000;}
	.st5{fill:#A80000;}
	.st6{clip-path:url(#XMLID_8_);enable-background:new    ;}
	.st7{fill:#990000;}
	.st8{fill:#940000;}
	.st9{fill:#8F0000;}
	.st10{fill:#8A0000;}
	.st11{fill:#850000;}
	.st12{clip-path:url(#XMLID_9_);enable-background:new    ;}
	.st13{clip-path:url(#XMLID_10_);enable-background:new    ;}
	.st14{fill:#DF0000;}
	.st15{clip-path:url(#XMLID_11_);enable-background:new    ;}
	.st16{clip-path:url(#XMLID_12_);enable-background:new    ;}
	.st17{clip-path:url(#XMLID_13_);enable-background:new    ;}
	.st18{fill:#820000;}
	.st19{filter:url(#Adobe_OpacityMaskFilter);}
	.st20{opacity:0.75;mask:url(#XMLID_14_);}
	.st21{clip-path:url(#XMLID_15_);enable-background:new    ;}
	.st22{fill:#FFFFFF;}
	.st23{clip-path:url(#XMLID_16_);enable-background:new    ;}
	.st24{clip-path:url(#XMLID_17_);enable-background:new    ;}
	.st25{clip-path:url(#XMLID_18_);enable-background:new    ;}
	.st26{clip-path:url(#XMLID_19_);enable-background:new    ;}
	.st27{clip-path:url(#XMLID_20_);enable-background:new    ;}
	.st28{clip-path:url(#XMLID_21_);enable-background:new    ;}
</style>
<linearGradient id="XMLID_6_" gradientUnits="userSpaceOnUse" x1="8.5555" y1="298" x2="391.4445" y2="298">
	<stop  offset="0" style="stop-color:#ED1C24"/>
	<stop  offset="1" style="stop-color:#000845"/>
</linearGradient>
<ellipse id="XMLID_4_" class="st0" cx="200" cy="298" rx="191.4" ry="150"/>
<g id="XMLID_3_">
	<g id="XMLID_308_">
		<g id="XMLID_338_" class="st1">
			<g id="XMLID_371_" class="st1">
				<defs>
					<path id="XMLID_376_" class="st1" d="M286.3,365.5l-52.1-28.3c6.3,3.4,13.7,4.9,22.2,3.7l52.1,28.3
						C300,370.4,292.6,368.9,286.3,365.5z"/>
				</defs>
				<clipPath id="XMLID_7_">
					<use xlink:href="#XMLID_376_"  style="overflow:visible;"/>
				</clipPath>
				<g id="XMLID_372_" class="st2">
					<path id="XMLID_375_" class="st3" d="M286.3,365.5l-52.1-28.3c0.4,0.2,0.8,0.4,1.2,0.6l52.1,28.3
						C287.1,365.9,286.7,365.7,286.3,365.5"/>
					<path id="XMLID_374_" class="st4" d="M287.5,366.1l-52.1-28.3c2,1,4.2,1.8,6.4,2.4l52.1,28.3
						C291.7,367.9,289.5,367.1,287.5,366.1"/>
					<path id="XMLID_373_" class="st5" d="M293.9,368.5l-52.1-28.3c4.4,1.1,9.3,1.4,14.6,0.7l52.1,28.3
						C303.2,369.9,298.3,369.6,293.9,368.5"/>
				</g>
			</g>
			<g id="XMLID_360_" class="st1">
				<defs>
					<path id="XMLID_370_" class="st1" d="M279.1,210.5l52.1,28.3c16.8,9.1,24.9,32.3,24.8,56c-0.1,37-17.3,70.1-47.5,74.3
						l-52.1-28.3c30.3-4.3,47.5-37.3,47.5-74.3C304,242.9,295.8,219.7,279.1,210.5z"/>
				</defs>
				<clipPath id="XMLID_8_">
					<use xlink:href="#XMLID_370_"  style="overflow:visible;"/>
				</clipPath>
				<g id="XMLID_361_" class="st6">
					<path id="XMLID_369_" class="st5" d="M308.5,369.2l-52.1-28.3c4.6-0.6,8.8-1.9,12.8-3.8l52.1,28.3
						C317.3,367.2,313,368.5,308.5,369.2"/>
					<path id="XMLID_368_" class="st4" d="M321.2,365.4L269.2,337c2.2-1.1,4.4-2.3,6.4-3.7l52.1,28.3
						C325.6,363.1,323.5,364.3,321.2,365.4"/>
					<path id="XMLID_367_" class="st3" d="M327.7,361.7l-52.1-28.3c1.7-1.2,3.4-2.5,4.9-3.9l52.1,28.3
						C331,359.2,329.4,360.5,327.7,361.7"/>
					<path id="XMLID_366_" class="st7" d="M332.6,357.8l-52.1-28.3c1.5-1.4,3-2.8,4.3-4.4l52.1,28.3
						C335.6,354.9,334.1,356.4,332.6,357.8"/>
					<path id="XMLID_365_" class="st8" d="M336.9,353.4L284.9,325c1.5-1.6,2.8-3.4,4.1-5.2l52.1,28.3
						C339.8,350,338.4,351.7,336.9,353.4"/>
					<path id="XMLID_364_" class="st9" d="M341.1,348.1L289,319.8c1.5-2.2,2.9-4.5,4.2-6.9l52.1,28.3
						C344,343.6,342.6,345.9,341.1,348.1"/>
					<path id="XMLID_363_" class="st10" d="M345.3,341.2l-52.1-28.3c1.7-3.2,3.3-6.7,4.6-10.3l52.1,28.3
						C348.6,334.6,347,338,345.3,341.2"/>
					<path id="XMLID_362_" class="st11" d="M349.9,331l-52.1-28.3c4-10.9,6.1-23.3,6.1-36.1c0-23.6-8.1-46.9-24.8-56l52.1,28.3
						c16.8,9.1,24.9,32.3,24.8,56C356,307.7,353.9,320.1,349.9,331"/>
				</g>
			</g>
			<g id="XMLID_354_" class="st1">
				<defs>
					<path id="XMLID_359_" class="st1" d="M292.6,195.2l52.1,28.3c-9.8-5.3-21.5-7.4-34.8-5.5l-52.1-28.3
						C271.1,187.8,282.8,189.8,292.6,195.2z"/>
				</defs>
				<clipPath id="XMLID_9_">
					<use xlink:href="#XMLID_359_"  style="overflow:visible;"/>
				</clipPath>
				<g id="XMLID_355_" class="st12">
					<path id="XMLID_358_" class="st5" d="M309.8,218l-52.1-28.3c8.5-1.2,16.4-0.8,23.5,1l52.1,28.3
						C326.2,217.2,318.3,216.8,309.8,218"/>
					<path id="XMLID_357_" class="st4" d="M333.3,219l-52.1-28.3c3.4,0.9,6.5,2,9.5,3.5l52.1,28.3
						C339.9,221.1,336.7,219.9,333.3,219"/>
					<path id="XMLID_356_" class="st3" d="M342.9,222.6l-52.1-28.3c0.6,0.3,1.2,0.6,1.8,0.9l52.1,28.3
						C344.1,223.2,343.5,222.8,342.9,222.6"/>
				</g>
			</g>
			<g id="XMLID_343_" class="st1">
				<defs>
					<path id="XMLID_353_" class="st1" d="M272.8,380.9l-52.1-28.3c-19.7-10.7-31.9-34.8-31.9-67.7c0.1-51.7,29.4-89.6,68.9-95.2
						l52.1,28.3c-39.5,5.6-68.8,43.5-68.9,95.2C240.9,346.1,253.1,370.2,272.8,380.9z"/>
				</defs>
				<clipPath id="XMLID_10_">
					<use xlink:href="#XMLID_353_"  style="overflow:visible;"/>
				</clipPath>
				<g id="XMLID_344_" class="st13">
					<path id="XMLID_352_" class="st11" d="M272.8,380.9l-52.1-28.3c-19.7-10.7-31.9-34.8-31.9-67.7c0-15,2.5-28.9,7-41.1l52.1,28.3
						c-4.5,12.2-7,26.1-7,41.1C240.9,346.1,253.1,370.2,272.8,380.9"/>
					<path id="XMLID_351_" class="st10" d="M248,272.1l-52.1-28.3c1.7-4.5,3.6-8.8,5.8-12.9l52.1,28.3
						C251.6,263.2,249.6,267.5,248,272.1"/>
					<path id="XMLID_350_" class="st9" d="M253.8,259.1l-52.1-28.3c1.7-3.2,3.6-6.3,5.6-9.2l52.1,28.3
						C257.4,252.9,255.5,255.9,253.8,259.1"/>
					<path id="XMLID_349_" class="st8" d="M259.4,250l-52.1-28.3c1.9-2.6,3.8-5.1,5.9-7.5l52.1,28.3
						C263.2,244.8,261.3,247.3,259.4,250"/>
					<path id="XMLID_348_" class="st7" d="M265.3,242.5l-52.1-28.3c2-2.3,4.2-4.5,6.5-6.5l52.1,28.3
						C269.5,238,267.4,240.2,265.3,242.5"/>
					<path id="XMLID_347_" class="st3" d="M271.8,235.9l-52.1-28.3c2.4-2.2,5-4.2,7.6-6l52.1,28.3
						C276.7,231.7,274.2,233.8,271.8,235.9"/>
					<path id="XMLID_346_" class="st4" d="M279.4,229.9l-52.1-28.3c3.3-2.3,6.8-4.3,10.4-6l52.1,28.3
						C286.2,225.6,282.7,227.6,279.4,229.9"/>
					<path id="XMLID_345_" class="st5" d="M289.8,224l-52.1-28.3c6.3-2.9,13-5,20.1-6l52.1,28.3C302.8,219,296.1,221,289.8,224"/>
				</g>
			</g>
			<g id="XMLID_339_">
				<path id="XMLID_340_" class="st14" d="M309.8,218c40.4-5.7,66.4,24.7,66.4,73.1c-0.1,56.1-31.1,90.1-68.9,95.4
					c-39.1,5.5-66.4-24-66.4-73.3C241.1,261.5,270.3,223.5,309.8,218z M308.5,369.2c30.3-4.3,47.5-37.3,47.5-74.3
					c0.1-32.4-15.2-64.1-47.1-59.6c-31.6,4.4-47.5,38.8-47.5,74.6C261.3,344.6,278.4,373.4,308.5,369.2"/>
			</g>
		</g>
		<g id="XMLID_310_" class="st1">
			<g id="XMLID_334_" class="st1">
				<defs>
					<path id="XMLID_337_" class="st1" d="M122.6,393.1l-52.1-28.3c4.8,0.3,11.8-0.5,19.3-1.5l52.1,28.3
						C134.4,392.7,127.4,393.4,122.6,393.1z"/>
				</defs>
				<clipPath id="XMLID_11_">
					<use xlink:href="#XMLID_337_"  style="overflow:visible;"/>
				</clipPath>
				<g id="XMLID_335_" class="st15">
					<path id="XMLID_336_" class="st5" d="M122.6,393.1l-52.1-28.3c4.8,0.3,11.8-0.5,19.3-1.5l52.1,28.3
						C134.4,392.7,127.4,393.4,122.6,393.1"/>
				</g>
			</g>
			<g id="XMLID_323_" class="st1">
				<defs>
					<path id="XMLID_333_" class="st1" d="M130.1,235.6l52.1,28.3c15.4,8.4,23,25.8,22.8,49.7c-0.1,44-22.3,72.2-63.1,78l-52.1-28.3
						c40.8-5.7,63-34,63.1-78C153.1,261.4,145.6,244,130.1,235.6z"/>
				</defs>
				<clipPath id="XMLID_12_">
					<use xlink:href="#XMLID_333_"  style="overflow:visible;"/>
				</clipPath>
				<g id="XMLID_324_" class="st16">
					<path id="XMLID_332_" class="st5" d="M141.9,391.6l-52.1-28.3c8.9-1.3,16.9-3.6,24.1-6.9l52.1,28.3
						C158.8,388,150.8,390.4,141.9,391.6"/>
					<path id="XMLID_331_" class="st4" d="M165.9,384.7l-52.1-28.3c3.4-1.6,6.6-3.4,9.6-5.5l52.1,28.3
						C172.5,381.3,169.3,383.1,165.9,384.7"/>
					<path id="XMLID_330_" class="st3" d="M175.5,379.2l-52.1-28.3c2.2-1.5,4.4-3.2,6.3-5l52.1,28.3
						C179.9,376,177.8,377.7,175.5,379.2"/>
					<path id="XMLID_329_" class="st7" d="M181.9,374.2l-52.1-28.3c1.8-1.6,3.4-3.2,5-5l52.1,28.3
						C185.3,371,183.6,372.6,181.9,374.2"/>
					<path id="XMLID_328_" class="st8" d="M186.8,369.2l-52.1-28.3c1.5-1.7,3-3.6,4.3-5.5l52.1,28.3
						C189.8,365.6,188.4,367.4,186.8,369.2"/>
					<path id="XMLID_327_" class="st9" d="M191.2,363.7l-52.1-28.3c1.5-2.1,2.9-4.3,4.1-6.7l52.1,28.3
						C194,359.3,192.7,361.6,191.2,363.7"/>
					<path id="XMLID_326_" class="st10" d="M195.3,357l-52.1-28.3c1.6-3,3-6.1,4.2-9.4l52.1,28.3C198.3,350.9,196.9,354.1,195.3,357
						"/>
					<path id="XMLID_325_" class="st11" d="M199.5,347.7l-52.1-28.3c3.6-9.9,5.5-21.3,5.5-34c0.2-23.9-7.4-41.3-22.8-49.7l52.1,28.3
						c15.4,8.4,23,25.8,22.8,49.7C205,326.4,203.1,337.7,199.5,347.7"/>
				</g>
			</g>
			<g id="XMLID_317_" class="st1">
				<defs>
					<path id="XMLID_322_" class="st1" d="M143.5,220.2l52.1,28.3c-12.5-6.8-29.3-8.9-51.2-5.8c-15.1,2.1-29,5.5-40.6,9.1
						l-52.1-28.3c11.6-3.6,25.5-7,40.6-9.1C114.1,211.3,131,213.4,143.5,220.2z"/>
				</defs>
				<clipPath id="XMLID_13_">
					<use xlink:href="#XMLID_322_"  style="overflow:visible;"/>
				</clipPath>
				<g id="XMLID_318_" class="st17">
					<path id="XMLID_321_" class="st5" d="M103.7,251.8l-52.1-28.3c11.6-3.6,25.5-7,40.6-9.1c15.3-2.2,28.2-1.8,38.8,1l52.1,28.3
						c-10.6-2.8-23.5-3.1-38.8-1C129.2,244.8,115.4,248.2,103.7,251.8"/>
					<path id="XMLID_320_" class="st4" d="M183.1,243.7L131,215.3c3.8,1,7.4,2.3,10.6,3.9l52.1,28.3
						C190.5,246,187,244.7,183.1,243.7"/>
					<path id="XMLID_319_" class="st3" d="M193.7,247.6l-52.1-28.3c0.6,0.3,1.2,0.6,1.8,0.9l52.1,28.3
						C195,248.2,194.4,247.9,193.7,247.6"/>
				</g>
			</g>
			<g id="XMLID_315_">
				<polygon id="XMLID_316_" class="st18" points="103.4,412 51.4,383.7 51.6,223.5 103.7,251.8 				"/>
			</g>
			<g id="XMLID_311_">
				<path id="XMLID_312_" class="st14" d="M204.2,254.6c13.1,11.4,20.8,29.2,20.7,55.5c0,26.6-7.6,49.4-21.4,66.3
					c-13.9,17.2-36.7,28.6-65.5,32.6c-13.6,1.9-25,2.8-34.7,2.9l0.3-160.2c11.6-3.6,25.5-7,40.6-9.1
					C171.8,238.8,191.3,243.1,204.2,254.6z M141.9,391.6c40.8-5.7,63-34,63.1-78c0.3-38.5-19.4-60.1-59.8-54.4
					c-9.9,1.4-17.3,3.4-22.4,5.3l-0.2,128.6C127.4,393.4,134.4,392.7,141.9,391.6"/>
			</g>
		</g>
	</g>
	<defs>
		<filter id="Adobe_OpacityMaskFilter" filterUnits="userSpaceOnUse" x="51.4" y="189" width="324.8" height="223">
			
				<feColorMatrix  type="matrix" values="-1 0 0 0 1  0 -1 0 0 1  0 0 -1 0 1  0 0 0 1 0" color-interpolation-filters="sRGB" result="source"/>
		</filter>
	</defs>
	<mask maskUnits="userSpaceOnUse" x="51.4" y="189" width="324.8" height="223" id="XMLID_14_">
		<g id="XMLID_238_" class="st19">
			
				<image style="overflow:visible;" width="330" height="228" id="XMLID_239_" xlink:href="2825AD1B.jpg"  transform="matrix(1 0 0 1 49 186)">
			</image>
		</g>
	</mask>
	<g id="XMLID_237_" class="st20">
		<g id="XMLID_269_" class="st1">
			<g id="XMLID_302_" class="st1">
				<defs>
					<path id="XMLID_307_" class="st1" d="M286.3,365.5l-52.1-28.3c6.3,3.4,13.7,4.9,22.2,3.7l52.1,28.3
						C300,370.4,292.6,368.9,286.3,365.5z"/>
				</defs>
				<clipPath id="XMLID_15_">
					<use xlink:href="#XMLID_307_"  style="overflow:visible;"/>
				</clipPath>
				<g id="XMLID_303_" class="st21">
					<path id="XMLID_306_" class="st22" d="M286.3,365.5l-52.1-28.3c0.4,0.2,0.8,0.4,1.2,0.6l52.1,28.3
						C287.1,365.9,286.7,365.7,286.3,365.5"/>
					<path id="XMLID_305_" class="st22" d="M287.5,366.1l-52.1-28.3c2,1,4.2,1.8,6.4,2.4l52.1,28.3
						C291.7,367.9,289.5,367.1,287.5,366.1"/>
					<path id="XMLID_304_" class="st22" d="M293.9,368.5l-52.1-28.3c4.4,1.1,9.3,1.4,14.6,0.7l52.1,28.3
						C303.2,369.9,298.3,369.6,293.9,368.5"/>
				</g>
			</g>
			<g id="XMLID_291_" class="st1">
				<defs>
					<path id="XMLID_301_" class="st1" d="M279.1,210.5l52.1,28.3c16.8,9.1,24.9,32.3,24.8,56c-0.1,37-17.3,70.1-47.5,74.3
						l-52.1-28.3c30.3-4.3,47.5-37.3,47.5-74.3C304,242.9,295.8,219.7,279.1,210.5z"/>
				</defs>
				<clipPath id="XMLID_16_">
					<use xlink:href="#XMLID_301_"  style="overflow:visible;"/>
				</clipPath>
				<g id="XMLID_292_" class="st23">
					<path id="XMLID_300_" class="st22" d="M308.5,369.2l-52.1-28.3c4.6-0.6,8.8-1.9,12.8-3.8l52.1,28.3
						C317.3,367.2,313,368.5,308.5,369.2"/>
					<path id="XMLID_299_" class="st22" d="M321.2,365.4L269.2,337c2.2-1.1,4.4-2.3,6.4-3.7l52.1,28.3
						C325.6,363.1,323.5,364.3,321.2,365.4"/>
					<path id="XMLID_298_" class="st22" d="M327.7,361.7l-52.1-28.3c1.7-1.2,3.4-2.5,4.9-3.9l52.1,28.3
						C331,359.2,329.4,360.5,327.7,361.7"/>
					<path id="XMLID_297_" class="st22" d="M332.6,357.8l-52.1-28.3c1.5-1.4,3-2.8,4.3-4.4l52.1,28.3
						C335.6,354.9,334.1,356.4,332.6,357.8"/>
					<path id="XMLID_296_" class="st22" d="M336.9,353.4L284.9,325c1.5-1.6,2.8-3.4,4.1-5.2l52.1,28.3
						C339.8,350,338.4,351.7,336.9,353.4"/>
					<path id="XMLID_295_" class="st22" d="M341.1,348.1L289,319.8c1.5-2.2,2.9-4.5,4.2-6.9l52.1,28.3
						C344,343.6,342.6,345.9,341.1,348.1"/>
					<path id="XMLID_294_" class="st22" d="M345.3,341.2l-52.1-28.3c1.7-3.2,3.3-6.7,4.6-10.3l52.1,28.3
						C348.6,334.6,347,338,345.3,341.2"/>
					<path id="XMLID_293_" class="st22" d="M349.9,331l-52.1-28.3c4-10.9,6.1-23.3,6.1-36.1c0-23.6-8.1-46.9-24.8-56l52.1,28.3
						c16.8,9.1,24.9,32.3,24.8,56C356,307.7,353.9,320.1,349.9,331"/>
				</g>
			</g>
			<g id="XMLID_285_" class="st1">
				<defs>
					<path id="XMLID_290_" class="st1" d="M292.6,195.2l52.1,28.3c-9.8-5.3-21.5-7.4-34.8-5.5l-52.1-28.3
						C271.1,187.8,282.8,189.8,292.6,195.2z"/>
				</defs>
				<clipPath id="XMLID_17_">
					<use xlink:href="#XMLID_290_"  style="overflow:visible;"/>
				</clipPath>
				<g id="XMLID_286_" class="st24">
					<path id="XMLID_289_" class="st22" d="M309.8,218l-52.1-28.3c8.5-1.2,16.4-0.8,23.5,1l52.1,28.3
						C326.2,217.2,318.3,216.8,309.8,218"/>
					<path id="XMLID_288_" class="st22" d="M333.3,219l-52.1-28.3c3.4,0.9,6.5,2,9.5,3.5l52.1,28.3
						C339.9,221.1,336.7,219.9,333.3,219"/>
					<path id="XMLID_287_" class="st22" d="M342.9,222.6l-52.1-28.3c0.6,0.3,1.2,0.6,1.8,0.9l52.1,28.3
						C344.1,223.2,343.5,222.8,342.9,222.6"/>
				</g>
			</g>
			<g id="XMLID_274_" class="st1">
				<defs>
					<path id="XMLID_284_" class="st1" d="M272.8,380.9l-52.1-28.3c-19.7-10.7-31.9-34.8-31.9-67.7c0.1-51.7,29.4-89.6,68.9-95.2
						l52.1,28.3c-39.5,5.6-68.8,43.5-68.9,95.2C240.9,346.1,253.1,370.2,272.8,380.9z"/>
				</defs>
				<clipPath id="XMLID_18_">
					<use xlink:href="#XMLID_284_"  style="overflow:visible;"/>
				</clipPath>
				<g id="XMLID_275_" class="st25">
					<path id="XMLID_283_" class="st22" d="M272.8,380.9l-52.1-28.3c-19.7-10.7-31.9-34.8-31.9-67.7c0-15,2.5-28.9,7-41.1l52.1,28.3
						c-4.5,12.2-7,26.1-7,41.1C240.9,346.1,253.1,370.2,272.8,380.9"/>
					<path id="XMLID_282_" class="st22" d="M248,272.1l-52.1-28.3c1.7-4.5,3.6-8.8,5.8-12.9l52.1,28.3
						C251.6,263.2,249.6,267.5,248,272.1"/>
					<path id="XMLID_281_" class="st22" d="M253.8,259.1l-52.1-28.3c1.7-3.2,3.6-6.3,5.6-9.2l52.1,28.3
						C257.4,252.9,255.5,255.9,253.8,259.1"/>
					<path id="XMLID_280_" class="st22" d="M259.4,250l-52.1-28.3c1.9-2.6,3.8-5.1,5.9-7.5l52.1,28.3
						C263.2,244.8,261.3,247.3,259.4,250"/>
					<path id="XMLID_279_" class="st22" d="M265.3,242.5l-52.1-28.3c2-2.3,4.2-4.5,6.5-6.5l52.1,28.3
						C269.5,238,267.4,240.2,265.3,242.5"/>
					<path id="XMLID_278_" class="st22" d="M271.8,235.9l-52.1-28.3c2.4-2.2,5-4.2,7.6-6l52.1,28.3
						C276.7,231.7,274.2,233.8,271.8,235.9"/>
					<path id="XMLID_277_" class="st22" d="M279.4,229.9l-52.1-28.3c3.3-2.3,6.8-4.3,10.4-6l52.1,28.3
						C286.2,225.6,282.7,227.6,279.4,229.9"/>
					<path id="XMLID_276_" class="st22" d="M289.8,224l-52.1-28.3c6.3-2.9,13-5,20.1-6l52.1,28.3C302.8,219,296.1,221,289.8,224"/>
				</g>
			</g>
			<g id="XMLID_270_">
				<path id="XMLID_271_" class="st22" d="M309.8,218c40.4-5.7,66.4,24.7,66.4,73.1c-0.1,56.1-31.1,90.1-68.9,95.4
					c-39.1,5.5-66.4-24-66.4-73.3C241.1,261.5,270.3,223.5,309.8,218z M308.5,369.2c30.3-4.3,47.5-37.3,47.5-74.3
					c0.1-32.4-15.2-64.1-47.1-59.6c-31.6,4.4-47.5,38.8-47.5,74.6C261.3,344.6,278.4,373.4,308.5,369.2"/>
			</g>
		</g>
		<g id="XMLID_241_" class="st1">
			<g id="XMLID_265_" class="st1">
				<defs>
					<path id="XMLID_268_" class="st1" d="M122.6,393.1l-52.1-28.3c4.8,0.3,11.8-0.5,19.3-1.5l52.1,28.3
						C134.4,392.7,127.4,393.4,122.6,393.1z"/>
				</defs>
				<clipPath id="XMLID_19_">
					<use xlink:href="#XMLID_268_"  style="overflow:visible;"/>
				</clipPath>
				<g id="XMLID_266_" class="st26">
					<path id="XMLID_267_" class="st22" d="M122.6,393.1l-52.1-28.3c4.8,0.3,11.8-0.5,19.3-1.5l52.1,28.3
						C134.4,392.7,127.4,393.4,122.6,393.1"/>
				</g>
			</g>
			<g id="XMLID_254_" class="st1">
				<defs>
					<path id="XMLID_264_" class="st1" d="M130.1,235.6l52.1,28.3c15.4,8.4,23,25.8,22.8,49.7c-0.1,44-22.3,72.2-63.1,78l-52.1-28.3
						c40.8-5.7,63-34,63.1-78C153.1,261.4,145.6,244,130.1,235.6z"/>
				</defs>
				<clipPath id="XMLID_20_">
					<use xlink:href="#XMLID_264_"  style="overflow:visible;"/>
				</clipPath>
				<g id="XMLID_255_" class="st27">
					<path id="XMLID_263_" class="st22" d="M141.9,391.6l-52.1-28.3c8.9-1.3,16.9-3.6,24.1-6.9l52.1,28.3
						C158.8,388,150.8,390.4,141.9,391.6"/>
					<path id="XMLID_262_" class="st22" d="M165.9,384.7l-52.1-28.3c3.4-1.6,6.6-3.4,9.6-5.5l52.1,28.3
						C172.5,381.3,169.3,383.1,165.9,384.7"/>
					<path id="XMLID_261_" class="st22" d="M175.5,379.2l-52.1-28.3c2.2-1.5,4.4-3.2,6.3-5l52.1,28.3
						C179.9,376,177.8,377.7,175.5,379.2"/>
					<path id="XMLID_260_" class="st22" d="M181.9,374.2l-52.1-28.3c1.8-1.6,3.4-3.2,5-5l52.1,28.3
						C185.3,371,183.6,372.6,181.9,374.2"/>
					<path id="XMLID_259_" class="st22" d="M186.8,369.2l-52.1-28.3c1.5-1.7,3-3.6,4.3-5.5l52.1,28.3
						C189.8,365.6,188.4,367.4,186.8,369.2"/>
					<path id="XMLID_258_" class="st22" d="M191.2,363.7l-52.1-28.3c1.5-2.1,2.9-4.3,4.1-6.7l52.1,28.3
						C194,359.3,192.7,361.6,191.2,363.7"/>
					<path id="XMLID_257_" class="st22" d="M195.3,357l-52.1-28.3c1.6-3,3-6.1,4.2-9.4l52.1,28.3C198.3,350.9,196.9,354.1,195.3,357
						"/>
					<path id="XMLID_256_" class="st22" d="M199.5,347.7l-52.1-28.3c3.6-9.9,5.5-21.3,5.5-34c0.2-23.9-7.4-41.3-22.8-49.7l52.1,28.3
						c15.4,8.4,23,25.8,22.8,49.7C205,326.4,203.1,337.7,199.5,347.7"/>
				</g>
			</g>
			<g id="XMLID_248_" class="st1">
				<defs>
					<path id="XMLID_253_" class="st1" d="M143.5,220.2l52.1,28.3c-12.5-6.8-29.3-8.9-51.2-5.8c-15.1,2.1-29,5.5-40.6,9.1
						l-52.1-28.3c11.6-3.6,25.5-7,40.6-9.1C114.1,211.3,131,213.4,143.5,220.2z"/>
				</defs>
				<clipPath id="XMLID_21_">
					<use xlink:href="#XMLID_253_"  style="overflow:visible;"/>
				</clipPath>
				<g id="XMLID_249_" class="st28">
					<path id="XMLID_252_" class="st22" d="M103.7,251.8l-52.1-28.3c11.6-3.6,25.5-7,40.6-9.1c15.3-2.2,28.2-1.8,38.8,1l52.1,28.3
						c-10.6-2.8-23.5-3.1-38.8-1C129.2,244.8,115.4,248.2,103.7,251.8"/>
					<path id="XMLID_251_" class="st22" d="M183.1,243.7L131,215.3c3.8,1,7.4,2.3,10.6,3.9l52.1,28.3
						C190.5,246,187,244.7,183.1,243.7"/>
					<path id="XMLID_250_" class="st22" d="M193.7,247.6l-52.1-28.3c0.6,0.3,1.2,0.6,1.8,0.9l52.1,28.3
						C195,248.2,194.4,247.9,193.7,247.6"/>
				</g>
			</g>
			<g id="XMLID_246_">
				<polygon id="XMLID_247_" class="st22" points="103.4,412 51.4,383.7 51.6,223.5 103.7,251.8 				"/>
			</g>
			<g id="XMLID_242_">
				<path id="XMLID_243_" class="st22" d="M204.2,254.6c13.1,11.4,20.8,29.2,20.7,55.5c0,26.6-7.6,49.4-21.4,66.3
					c-13.9,17.2-36.7,28.6-65.5,32.6c-13.6,1.9-25,2.8-34.7,2.9l0.3-160.2c11.6-3.6,25.5-7,40.6-9.1
					C171.8,238.8,191.3,243.1,204.2,254.6z M141.9,391.6c40.8-5.7,63-34,63.1-78c0.3-38.5-19.4-60.1-59.8-54.4
					c-9.9,1.4-17.3,3.4-22.4,5.3l-0.2,128.6C127.4,393.4,134.4,392.7,141.9,391.6"/>
			</g>
		</g>
	</g>
</g>
</svg>
